<svg width="650" height="200" xmlns="http://www.w3.org/2000/svg">
  <rect width="650" height="200" fill="#ffffff"/>
  <rect x="50" y="50" width="120" height="100" fill="#ffffff" stroke="#000000" stroke-width="2" rx="5"/>

  <rect x="75" y="75" width="35" height="50" fill="#ffffff" stroke="#000000" stroke-width="1"/>
  <rect x="115" y="75" width="35" height="50" fill="#ffffff" stroke="#000000" stroke-width="1"/>

  <rect x="200" y="50" width="120" height="100" fill="#ffffff" stroke="#000000" stroke-width="2" rx="5"/>

  <rect x="225" y="75" width="35" height="25" fill="#ffffff" stroke="#000000" stroke-width="1"/>
  <rect x="225" y="100" width="35" height="25" fill="#808080" stroke="#000000" stroke-width="1"/>
  <rect x="265" y="75" width="35" height="50" fill="#ffffff" stroke="#000000" stroke-width="1"/>

  <rect x="350" y="50" width="120" height="100" fill="#ffffff" stroke="#000000" stroke-width="2" rx="5"/>

  <rect x="375" y="75" width="35" height="25" fill="#ffffff" stroke="#000000" stroke-width="1"/>
  <rect x="375" y="100" width="35" height="25" fill="#808080" stroke="#000000" stroke-width="1"/>
  <rect x="415" y="75" width="35" height="25" fill="#ffffff" stroke="#000000" stroke-width="1"/>
  <rect x="415" y="100" width="35" height="25" fill="#808080" stroke="#000000" stroke-width="1"/>

  <rect x="500" y="50" width="120" height="100" fill="#ffffff" stroke="#000000" stroke-width="2" rx="5"/>

  <rect x="525" y="75" width="35" height="25" fill="#ffffff" stroke="#000000" stroke-width="1"/>
  <rect x="525" y="100" width="35" height="25" fill="#000000" stroke="#000000" stroke-width="1"/>
  <rect x="565" y="75" width="35" height="25" fill="#ffffff" stroke="#000000" stroke-width="1"/>
  <rect x="565" y="100" width="35" height="25" fill="#000000" stroke="#000000" stroke-width="1"/>

  <defs>
    <marker id="arrowhead" markerWidth="10" markerHeight="7" refX="10" refY="3.5" orient="auto">
      <polygon points="0 0, 10 3.5, 0 7" fill="#000000"/>
    </marker>
  </defs>

  <line x1="170" y1="100" x2="200" y2="100" stroke="#000000" stroke-width="2" marker-end="url(#arrowhead)"/>
  <line x1="320" y1="100" x2="350" y2="100" stroke="#000000" stroke-width="2" marker-end="url(#arrowhead)"/>
  <line x1="470" y1="100" x2="500" y2="100" stroke="#000000" stroke-width="2" marker-end="url(#arrowhead)"/>

  <text x="110" y="40" text-anchor="middle" font-family="Arial, sans-serif" font-size="14">A</text>
  <text x="260" y="40" text-anchor="middle" font-family="Arial, sans-serif" font-size="14">B</text>
  <text x="410" y="40" text-anchor="middle" font-family="Arial, sans-serif" font-size="14">C</text>
  <text x="560" y="40" text-anchor="middle" font-family="Arial, sans-serif" font-size="14">D</text>
</svg>
