<svg xmlns="http://www.w3.org/2000/svg" viewBox="0 0 1200 750">
  <defs>
    <marker id="arrowhead" markerWidth="10" markerHeight="10" refX="9" refY="3" orient="auto">
      <polygon points="0 0, 10 3, 0 6" fill="#333" />
    </marker>
    <marker id="arrowhead-blue" markerWidth="10" markerHeight="10" refX="9" refY="3" orient="auto">
      <polygon points="0 0, 10 3, 0 6" fill="#4b5563" />
    </marker>
    <linearGradient id="grad1" x1="0%" y1="0%" x2="100%" y2="0%">
      <stop offset="0%" style="stop-color:#6b7280;stop-opacity:0.2" />
      <stop offset="100%" style="stop-color:#9ca3af;stop-opacity:0.2" />
    </linearGradient>
  </defs>
  
  <line x1="80" y1="100" x2="1120" y2="100" stroke="#94a3b8" stroke-width="3" marker-end="url(#arrowhead)"/>
  <text x="1140" y="107" font-size="20" fill="#64748b">t</text>
  
  <circle cx="180" cy="100" r="12" fill="#9ca3af" stroke="#4b5563" stroke-width="3"/>
  <text x="180" y="137" font-size="18" font-weight="bold" text-anchor="middle" fill="#4b5563">n-1</text>
  
  <circle cx="380" cy="100" r="12" fill="#6b7280" stroke="#374151" stroke-width="3"/>
  <text x="380" y="137" font-size="18" font-weight="bold" text-anchor="middle" fill="#374151">n</text>
  
  <circle cx="720" cy="100" r="12" fill="#4b5563" stroke="#1f2937" stroke-width="3"/>
  <text x="720" y="137" font-size="18" font-weight="bold" text-anchor="middle" fill="#1f2937">n+1</text>
  
  <circle cx="1020" cy="100" r="12" fill="#374151" stroke="#111827" stroke-width="3"/>
  <text x="1020" y="137" font-size="18" font-weight="bold" text-anchor="middle" fill="#111827">n+2</text>
  
  <path d="M 180 110 Q 280 130 380 110" stroke="#64748b" stroke-width="2" stroke-dasharray="5,5" fill="none"/>
  <path d="M 380 110 Q 550 130 720 110" stroke="#64748b" stroke-width="2" stroke-dasharray="5,5" fill="none"/>
  <path d="M 720 110 Q 870 130 1020 110" stroke="#64748b" stroke-width="2" stroke-dasharray="5,5" fill="none"/>
  
  <rect x="240" y="200" width="160" height="180" rx="12" fill="#f3f4f6" stroke="#6b7280" stroke-width="3"/>
  <text x="320" y="230" font-size="20" font-weight="bold" text-anchor="middle" fill="#374151">コミット n</text>
  
  <rect x="260" y="250" width="120" height="40" rx="6" fill="#e5e7eb" stroke="#9ca3af" stroke-width="2"/>
  <text x="320" y="275" font-size="16" font-weight="bold" text-anchor="middle" fill="#1f2937">メソッド A</text>
  
  <rect x="260" y="300" width="120" height="40" rx="6" fill="#e5e7eb" stroke="#9ca3af" stroke-width="2"/>
  <text x="320" y="325" font-size="16" font-weight="bold" text-anchor="middle" fill="#1f2937">メソッド B</text>
  
  <rect x="800" y="200" width="160" height="230" rx="12" fill="#e5e7eb" stroke="#4b5563" stroke-width="3"/>
  <text x="880" y="230" font-size="20" font-weight="bold" text-anchor="middle" fill="#1f2937">コミット n+1</text>
  
  <rect x="820" y="250" width="120" height="40" rx="6" fill="#d1d5db" stroke="#6b7280" stroke-width="2"/>
  <text x="880" y="275" font-size="16" font-weight="bold" text-anchor="middle" fill="#111827">メソッド A</text>
  
  <rect x="820" y="300" width="120" height="40" rx="6" fill="#d1d5db" stroke="#6b7280" stroke-width="2"/>
  <text x="880" y="325" font-size="16" font-weight="bold" text-anchor="middle" fill="#111827">メソッド B</text>
  
  <rect x="820" y="350" width="120" height="40" rx="6" fill="#d1d5db" stroke="#6b7280" stroke-width="2"/>
  <text x="880" y="375" font-size="16" font-weight="bold" text-anchor="middle" fill="#111827">メソッド C</text>
  
  <line x1="400" y1="290" x2="780" y2="290" stroke="#333" stroke-width="4" marker-end="url(#arrowhead)"/>
  <text x="590" y="278" font-size="24" font-weight="bold" text-anchor="middle" fill="#333">Δ</text>
  
  <rect x="480" y="420" width="240" height="130" rx="12" fill="#f3f4f6" stroke="#6b7280" stroke-width="3"/>
  <text x="600" y="454" font-size="19" font-weight="bold" text-anchor="middle" fill="#1f2937">特徴量抽出</text>
  
  <text x="600" y="484" font-size="16" text-anchor="middle" fill="#1e293b">行数</text>
  <text x="600" y="510" font-size="16" text-anchor="middle" fill="#1e293b">複雑度</text>
  <text x="600" y="536" font-size="16" text-anchor="middle" fill="#1e293b">ファイル数</text>
  
  <line x1="880" y1="430" x2="880" y2="450" stroke="#333" stroke-width="3"/>
  <line x1="880" y1="450" x2="720" y2="475" stroke="#333" stroke-width="3" marker-end="url(#arrowhead)"/>
  
  <line x1="320" y1="380" x2="320" y2="450" stroke="#333" stroke-width="3"/>
  <line x1="320" y1="450" x2="480" y2="475" stroke="#333" stroke-width="3" marker-end="url(#arrowhead)"/>
  
  <rect x="350" y="600" width="500" height="90" rx="12" fill="#f8fafc" stroke="#475569" stroke-width="3"/>
  <text x="600" y="636" font-size="21" font-weight="bold" text-anchor="middle" fill="#1e293b">ランダムフォレスト</text>
  <text x="600" y="668" font-size="18" font-weight="bold" text-anchor="middle" fill="#374151">欠陥混入確率: 0.0 ~ 1.0</text>
  
  <line x1="600" y1="555" x2="600" y2="595" stroke="#333" stroke-width="3" marker-end="url(#arrowhead)"/>
</svg>
